<?xml version="1.0" standalone="no"?>
<svg xmlns:xlink="http://www.w3.org/1999/xlink" id="wave" style="transform:rotate(180deg); transition: 0.3s" viewBox="0 0 1440 490" version="1.1" xmlns="http://www.w3.org/2000/svg"><defs><linearGradient id="sw-gradient-0" x1="0" x2="0" y1="1" y2="0"><stop stop-color="rgba(243, 106, 62, 1)" offset="0%"/><stop stop-color="rgba(255, 179, 11, 1)" offset="100%"/></linearGradient></defs><path style="transform:translate(0, 0px); opacity:1" fill="url(#sw-gradient-0)" d="M0,49L120,65.3C240,82,480,114,720,179.7C960,245,1200,343,1440,359.3C1680,376,1920,310,2160,253.2C2400,196,2640,147,2880,155.2C3120,163,3360,229,3600,236.8C3840,245,4080,196,4320,187.8C4560,180,4800,212,5040,212.3C5280,212,5520,180,5760,212.3C6000,245,6240,343,6480,392C6720,441,6960,441,7200,416.5C7440,392,7680,343,7920,326.7C8160,310,8400,327,8640,310.3C8880,294,9120,245,9360,228.7C9600,212,9840,229,10080,220.5C10320,212,10560,180,10800,171.5C11040,163,11280,180,11520,171.5C11760,163,12000,131,12240,130.7C12480,131,12720,163,12960,171.5C13200,180,13440,163,13680,155.2C13920,147,14160,147,14400,155.2C14640,163,14880,180,15120,196C15360,212,15600,229,15840,261.3C16080,294,16320,343,16560,318.5C16800,294,17040,196,17160,147L17280,98L17280,490L17160,490C17040,490,16800,490,16560,490C16320,490,16080,490,15840,490C15600,490,15360,490,15120,490C14880,490,14640,490,14400,490C14160,490,13920,490,13680,490C13440,490,13200,490,12960,490C12720,490,12480,490,12240,490C12000,490,11760,490,11520,490C11280,490,11040,490,10800,490C10560,490,10320,490,10080,490C9840,490,9600,490,9360,490C9120,490,8880,490,8640,490C8400,490,8160,490,7920,490C7680,490,7440,490,7200,490C6960,490,6720,490,6480,490C6240,490,6000,490,5760,490C5520,490,5280,490,5040,490C4800,490,4560,490,4320,490C4080,490,3840,490,3600,490C3360,490,3120,490,2880,490C2640,490,2400,490,2160,490C1920,490,1680,490,1440,490C1200,490,960,490,720,490C480,490,240,490,120,490L0,490Z"/><defs><linearGradient id="sw-gradient-1" x1="0" x2="0" y1="1" y2="0"><stop stop-color="rgba(243, 106, 62, 1)" offset="0%"/><stop stop-color="rgba(255, 179, 11, 1)" offset="100%"/></linearGradient></defs><path style="transform:translate(0, 50px); opacity:0.9" fill="url(#sw-gradient-1)" d="M0,392L120,351.2C240,310,480,229,720,171.5C960,114,1200,82,1440,89.8C1680,98,1920,147,2160,187.8C2400,229,2640,261,2880,236.8C3120,212,3360,131,3600,106.2C3840,82,4080,114,4320,122.5C4560,131,4800,114,5040,155.2C5280,196,5520,294,5760,302.2C6000,310,6240,229,6480,171.5C6720,114,6960,82,7200,106.2C7440,131,7680,212,7920,253.2C8160,294,8400,294,8640,310.3C8880,327,9120,359,9360,310.3C9600,261,9840,131,10080,73.5C10320,16,10560,33,10800,32.7C11040,33,11280,16,11520,73.5C11760,131,12000,261,12240,302.2C12480,343,12720,294,12960,253.2C13200,212,13440,180,13680,138.8C13920,98,14160,49,14400,32.7C14640,16,14880,33,15120,81.7C15360,131,15600,212,15840,228.7C16080,245,16320,196,16560,147C16800,98,17040,49,17160,24.5L17280,0L17280,490L17160,490C17040,490,16800,490,16560,490C16320,490,16080,490,15840,490C15600,490,15360,490,15120,490C14880,490,14640,490,14400,490C14160,490,13920,490,13680,490C13440,490,13200,490,12960,490C12720,490,12480,490,12240,490C12000,490,11760,490,11520,490C11280,490,11040,490,10800,490C10560,490,10320,490,10080,490C9840,490,9600,490,9360,490C9120,490,8880,490,8640,490C8400,490,8160,490,7920,490C7680,490,7440,490,7200,490C6960,490,6720,490,6480,490C6240,490,6000,490,5760,490C5520,490,5280,490,5040,490C4800,490,4560,490,4320,490C4080,490,3840,490,3600,490C3360,490,3120,490,2880,490C2640,490,2400,490,2160,490C1920,490,1680,490,1440,490C1200,490,960,490,720,490C480,490,240,490,120,490L0,490Z"/></svg>