<?xml version="1.0" standalone="no"?>
<svg xmlns:xlink="http://www.w3.org/1999/xlink" id="wave" style="transform:rotate(0deg); transition: 0.3s" viewBox="0 0 1440 490" version="1.1" xmlns="http://www.w3.org/2000/svg"><defs><linearGradient id="sw-gradient-0" x1="0" x2="0" y1="1" y2="0"><stop stop-color="rgba(36, 98, 134, 1)" offset="0%"/><stop stop-color="rgba(63, 163, 197, 1)" offset="100%"/></linearGradient></defs><path style="transform:translate(0, 0px); opacity:1" fill="url(#sw-gradient-0)" d="M0,147L120,163.3C240,180,480,212,720,220.5C960,229,1200,212,1440,204.2C1680,196,1920,196,2160,171.5C2400,147,2640,98,2880,73.5C3120,49,3360,49,3600,81.7C3840,114,4080,180,4320,196C4560,212,4800,180,5040,179.7C5280,180,5520,212,5760,228.7C6000,245,6240,245,6480,245C6720,245,6960,245,7200,212.3C7440,180,7680,114,7920,147C8160,180,8400,310,8640,359.3C8880,408,9120,376,9360,375.7C9600,376,9840,408,10080,408.3C10320,408,10560,376,10800,359.3C11040,343,11280,343,11520,343C11760,343,12000,343,12240,334.8C12480,327,12720,310,12960,294C13200,278,13440,261,13680,236.8C13920,212,14160,180,14400,187.8C14640,196,14880,245,15120,236.8C15360,229,15600,163,15840,147C16080,131,16320,163,16560,179.7C16800,196,17040,196,17160,196L17280,196L17280,490L17160,490C17040,490,16800,490,16560,490C16320,490,16080,490,15840,490C15600,490,15360,490,15120,490C14880,490,14640,490,14400,490C14160,490,13920,490,13680,490C13440,490,13200,490,12960,490C12720,490,12480,490,12240,490C12000,490,11760,490,11520,490C11280,490,11040,490,10800,490C10560,490,10320,490,10080,490C9840,490,9600,490,9360,490C9120,490,8880,490,8640,490C8400,490,8160,490,7920,490C7680,490,7440,490,7200,490C6960,490,6720,490,6480,490C6240,490,6000,490,5760,490C5520,490,5280,490,5040,490C4800,490,4560,490,4320,490C4080,490,3840,490,3600,490C3360,490,3120,490,2880,490C2640,490,2400,490,2160,490C1920,490,1680,490,1440,490C1200,490,960,490,720,490C480,490,240,490,120,490L0,490Z"/><defs><linearGradient id="sw-gradient-1" x1="0" x2="0" y1="1" y2="0"><stop stop-color="rgba(36, 98, 134, 1)" offset="0%"/><stop stop-color="rgba(63, 163, 197, 1)" offset="100%"/></linearGradient></defs><path style="transform:translate(0, 50px); opacity:0.9" fill="url(#sw-gradient-1)" d="M0,343L120,310.3C240,278,480,212,720,196C960,180,1200,212,1440,212.3C1680,212,1920,180,2160,155.2C2400,131,2640,114,2880,163.3C3120,212,3360,327,3600,351.2C3840,376,4080,310,4320,294C4560,278,4800,310,5040,302.2C5280,294,5520,245,5760,245C6000,245,6240,294,6480,285.8C6720,278,6960,212,7200,196C7440,180,7680,212,7920,236.8C8160,261,8400,278,8640,253.2C8880,229,9120,163,9360,179.7C9600,196,9840,294,10080,326.7C10320,359,10560,327,10800,310.3C11040,294,11280,294,11520,294C11760,294,12000,294,12240,310.3C12480,327,12720,359,12960,359.3C13200,359,13440,327,13680,326.7C13920,327,14160,359,14400,310.3C14640,261,14880,131,15120,89.8C15360,49,15600,98,15840,114.3C16080,131,16320,114,16560,114.3C16800,114,17040,131,17160,138.8L17280,147L17280,490L17160,490C17040,490,16800,490,16560,490C16320,490,16080,490,15840,490C15600,490,15360,490,15120,490C14880,490,14640,490,14400,490C14160,490,13920,490,13680,490C13440,490,13200,490,12960,490C12720,490,12480,490,12240,490C12000,490,11760,490,11520,490C11280,490,11040,490,10800,490C10560,490,10320,490,10080,490C9840,490,9600,490,9360,490C9120,490,8880,490,8640,490C8400,490,8160,490,7920,490C7680,490,7440,490,7200,490C6960,490,6720,490,6480,490C6240,490,6000,490,5760,490C5520,490,5280,490,5040,490C4800,490,4560,490,4320,490C4080,490,3840,490,3600,490C3360,490,3120,490,2880,490C2640,490,2400,490,2160,490C1920,490,1680,490,1440,490C1200,490,960,490,720,490C480,490,240,490,120,490L0,490Z"/></svg>